<svg xmlns="http://www.w3.org/2000/svg" width="36" height="35" viewBox="0 0 36 35" fill="none"><path d="M6.97742 11.8223H11.1634C13.9841 11.8223 15.7617 13.4343 15.7617 16.0738V16.1087C15.7617 18.9599 13.6962 20.3951 11.0548 20.4481H9.5822V24.2208H6.97742V11.8223ZM11.0377 18.1454C12.3846 18.1454 13.1398 17.3129 13.1398 16.1616V16.1436C13.1398 14.8503 12.3858 14.1417 11.0023 14.1417H9.58342V18.1454H11.0389H11.0377Z" fill="currentColor"></path><path d="M17.7369 11.8223H20.4674L23.2698 16.8522L26.0356 11.8223H28.7844V24.2208H26.2333V16.3036L23.2698 21.4225H23.2161L20.2697 16.3385V24.2208H17.7369V11.8223Z" fill="currentColor"></path><path d="M17.7479 2.59255C26.0844 2.59255 32.8666 9.28024 32.8666 17.5006C32.8666 25.721 26.0844 32.4087 17.7479 32.4087C9.41138 32.4087 2.62918 25.7198 2.62918 17.5006C2.62918 9.28144 9.41138 2.59255 17.7479 2.59255ZM17.7479 0C7.94611 0 0 7.83539 0 17.5006C0 27.1658 7.94611 35.0012 17.7479 35.0012C27.5497 35.0012 35.4958 27.1658 35.4958 17.5006C35.4958 7.83539 27.5485 0 17.7479 0Z" fill="currentColor"></path></svg>